<?xml version="1.0" encoding="utf-8"?>
<!-- Generator: Adobe Illustrator 27.5.0, SVG Export Plug-In . SVG Version: 6.00 Build 0)  -->
<svg version="1.1" id="katman_1" xmlns="http://www.w3.org/2000/svg" xmlns:xlink="http://www.w3.org/1999/xlink" x="0px" y="0px"
	 viewBox="0 0 841.89 595.28" style="enable-background:new 0 0 841.89 595.28;" xml:space="preserve">
<style type="text/css">
	.st0{fill:#FFFFFF;}
	.st1{fill:#010202;}
	.st2{fill:#E52421;}
</style>
<rect x="58.38" y="162.31" class="st0" width="724.62" height="270.26"/>
<g>
	<rect x="290.55" y="165.48" class="st1" width="24.94" height="154.63"/>
	<path class="st1" d="M402.1,320.11h24.94V215.36H402.1v55.32h0.45c0,23.13-19.95,25.39-25.39,25.39
		c-14.51,0-17.68-14.06-17.68-22.67v-58.04h-24.94v58.95c0,14.51,4.99,26.3,12.24,34.92c6.8,6.8,17.68,10.88,29.93,10.88
		c8.62,0,19.95-2.27,25.39-8.62V320.11z"/>
	<polygon class="st1" points="451.07,320.11 476.01,320.11 476.01,240.3 494.15,240.3 494.15,215.36 476.01,215.36 476.01,178.18 
		451.07,178.18 451.07,215.36 432.48,215.36 432.48,240.3 451.07,240.3 	"/>
	<path class="st1" d="M552.19,319.66c14.06,0,27.21-4.99,37.18-14.06l3.63-3.63l-17.23-17.23l-3.63,4.53
		c-5.44,4.99-12.24,7.71-19.95,7.71c-17.23,0-29.93-12.24-29.93-30.38s12.24-29.93,29.93-29.93c7.71,0,14.51,2.27,19.95,7.71
		l3.63,3.17l16.32-16.32l-3.63-3.63c-10.43-8.62-22.67-14.06-36.28-14.06c-30.83-0.45-53.51,21.77-53.51,53.05
		C498.68,296.08,521.81,319.66,552.19,319.66z"/>
	<path class="st1" d="M629.73,261.61c0-23.13,17.23-25.39,22.67-25.39c14.51,0,14.51,14.06,14.51,22.67v61.22h24.94v-61.67
		c0.45-13.6-2.72-25.85-10.88-34.01c-6.8-6.8-15.87-10.88-27.21-10.88c-8.62,0-17.68,2.27-24.49,8.62v-56.68h-24.94v154.63h24.94
		v-58.5H629.73z"/>
	<path class="st2" d="M533.15,266.6c0,9.98,8.16,17.68,17.68,17.68c9.98,0,17.68-8.16,17.68-17.68c0-9.98-8.16-17.68-17.68-17.68
		S533.15,256.63,533.15,266.6z"/>
	<path class="st1" d="M220.26,319.66c19.95,0,39-7.71,51.69-21.77l3.63-3.63l-16.32-17.23l-3.17,4.53
		c-9.07,9.07-22.67,14.51-35.82,14.51c-28.11,0-48.07-21.77-48.07-51.24c0-29.93,19.95-51.24,47.61-51.24
		c13.15,0,25.39,5.44,35.82,14.51l3.63,3.63l16.32-16.32l-3.63-3.63c-13.6-14.51-32.2-21.77-51.69-21.77
		c-40.81,0.45-71.19,32.2-71.19,74.82S179.45,319.66,220.26,319.66z"/>
	<polygon class="st1" points="189.43,399.01 180.36,399.01 180.36,407.17 169.02,407.17 187.16,381.78 177.19,381.78 157.23,408.53 
		157.23,414.88 179.91,414.88 179.91,423.95 189.43,423.95 189.43,414.88 196.23,414.88 196.23,407.17 189.43,407.17 	"/>
	<path class="st1" d="M205.75,412.61c-1.81,0-3.17,0.45-4.08,1.81c-0.91,0.91-1.81,2.27-1.81,4.08c0,1.81,0.45,3.17,1.81,4.08
		c0.91,0.91,2.72,1.81,4.08,1.81c1.81,0,3.17-0.45,4.08-1.81c0.91-0.91,1.81-2.72,1.81-4.08c0-1.81-0.45-3.17-1.81-4.08
		C208.93,413.07,207.57,412.61,205.75,412.61z"/>
	<path class="st1" d="M244.75,386.31c-3.17-3.63-8.16-5.44-14.06-5.44c-3.17,0-5.44,0.45-8.16,1.81c-2.27,1.36-4.53,2.72-5.89,4.99
		c-1.36,2.27-2.27,4.53-2.27,7.26c0,2.72,0.45,4.99,1.81,6.8c1.36,1.81,3.17,3.63,5.44,4.53c2.27,0.91,4.53,1.81,7.26,1.81
		c4.53,0,8.16-1.36,10.43-3.63c0,4.08-1.36,6.8-3.17,9.07c-2.27,2.27-4.99,3.17-8.62,3.17c-3.17,0-5.89-0.91-7.71-2.27l-3.63,7.26
		c1.36,0.91,3.17,1.81,5.44,2.27c2.27,0.45,4.08,0.91,6.35,0.91c4.08,0,8.16-0.91,11.34-2.72c3.17-1.81,5.89-4.53,7.71-7.71
		c1.81-3.63,2.72-7.71,2.72-12.24C249.74,394.93,247.92,389.94,244.75,386.31z M237.04,399.01c-1.36,1.36-3.17,1.81-4.99,1.81
		c-2.27,0-4.08-0.45-4.99-1.81c-1.36-1.36-1.81-2.72-1.81-4.53c0-1.81,0.45-3.63,1.81-4.53c1.36-0.91,3.17-1.81,4.99-1.81
		c2.27,0,4.08,0.45,5.44,1.81c1.36,1.36,1.81,2.72,1.81,4.53C238.86,396.29,238.4,397.65,237.04,399.01z"/>
	<polygon class="st1" points="268.78,373.16 248.83,429.85 257.45,429.85 276.95,373.16 	"/>
	<path class="st1" d="M291.46,397.65h-3.63l0.45-8.16h17.68v-7.71h-25.85l-2.27,23.58h10.88c3.63,0,6.35,0.45,7.71,1.36
		c1.36,0.91,2.27,2.27,2.27,4.08c0,1.81-0.91,3.17-2.27,4.08c-1.36,0.91-3.17,1.36-5.89,1.36c-2.27,0-4.53-0.45-6.35-0.91
		c-2.27-0.45-4.08-1.81-5.44-2.72l-3.63,7.26c1.81,1.36,4.53,2.72,7.26,3.17c2.72,0.91,5.89,1.36,8.62,1.36
		c3.63,0,7.26-0.45,9.52-1.81c2.72-1.36,4.53-2.72,5.89-4.99c1.36-2.27,1.81-4.53,1.81-6.8c0-4.08-1.36-7.26-4.08-9.52
		C301.43,398.56,297.35,397.65,291.46,397.65z"/>
	<path class="st1" d="M318.21,412.61c-1.81,0-3.17,0.45-4.08,1.81c-0.91,0.91-1.81,2.27-1.81,4.08c0,1.81,0.45,3.17,1.81,4.08
		c0.91,0.91,2.72,1.81,4.08,1.81c1.81,0,3.17-0.45,4.08-1.81c0.91-0.91,1.81-2.72,1.81-4.08c0-1.81-0.45-3.17-1.81-4.08
		C321.38,413.07,320.02,412.61,318.21,412.61z"/>
	<path class="st1" d="M354.94,383.59c-2.72-1.81-5.89-2.72-9.52-2.72c-3.63,0-6.8,0.91-9.52,2.72c-2.72,1.81-4.99,4.08-6.35,7.71
		c-1.36,3.17-2.27,7.26-2.27,11.79s0.91,8.62,2.27,11.79c1.36,3.17,3.63,5.89,6.35,7.71s5.89,2.72,9.52,2.72
		c3.63,0,6.8-0.91,9.52-2.72c2.72-1.81,4.99-4.08,6.35-7.71c1.36-3.17,2.27-7.26,2.27-11.79s-0.91-8.62-2.27-11.79
		C359.93,387.67,357.66,385.41,354.94,383.59z M351.77,413.07c-1.36,2.27-3.63,3.17-5.89,3.17c-2.72,0-4.53-0.91-5.89-3.17
		c-1.36-2.27-2.27-5.44-2.27-10.43c0-4.99,0.91-8.16,2.27-10.43c1.36-2.27,3.63-3.17,5.89-3.17c2.72,0,4.53,0.91,5.89,3.17
		s2.27,5.44,2.27,10.43C354.03,407.63,353.13,410.8,351.77,413.07z"/>
	<path class="st2" d="M444.27,390.39h-19.05c-0.45,0-1.36-0.45-1.36-0.91l-5.89-18.14c-0.45-1.36-2.72-1.36-3.17,0l-5.89,18.14
		c0,0.45-0.91,0.91-1.36,0.91h-19.05c-1.36,0-2.27,1.81-0.91,2.72l15.42,11.34c0.45,0.45,0.91,0.91,0.45,1.81l-5.89,18.14
		c-0.45,1.36,1.36,2.72,2.27,1.81l15.42-11.34c0.45-0.45,1.36-0.45,1.81,0l15.42,11.34c1.36,0.91,2.72-0.45,2.27-1.81l-5.89-18.14
		c0-0.45,0-1.36,0.45-1.81l15.42-11.34C446.54,392.21,446.08,390.39,444.27,390.39z"/>
	<path class="st2" d="M505.49,390.39h-19.05c-0.45,0-1.36-0.45-1.36-0.91l-5.89-18.14c-0.45-1.36-2.72-1.36-3.17,0l-5.89,18.14
		c0,0.45-0.91,0.91-1.36,0.91h-19.05c-1.36,0-2.27,1.81-0.91,2.72l15.42,11.34c0.45,0.45,0.91,0.91,0.45,1.81l-5.89,18.14
		c-0.45,1.36,1.36,2.72,2.27,1.81l15.42-11.34c0.45-0.45,1.36-0.45,1.81,0l15.42,11.34c1.36,0.91,2.72-0.45,2.27-1.81l-5.89-18.14
		c0-0.45,0-1.36,0.45-1.81l15.42-11.34C507.3,392.21,506.85,390.39,505.49,390.39z"/>
	<path class="st2" d="M568.06,390.39h-19.05c-0.45,0-1.36-0.45-1.36-0.91l-5.89-18.14c-0.45-1.36-2.72-1.36-3.17,0l-5.89,18.14
		c0,0.45-0.91,0.91-1.36,0.91h-19.05c-1.36,0-2.27,1.81-0.91,2.72l15.42,11.34c0.45,0.45,0.91,0.91,0.45,1.81l-5.89,18.14
		c-0.45,1.36,1.36,2.72,2.27,1.81l15.42-11.34c0.45-0.45,1.36-0.45,1.81,0l15.42,11.34c1.36,0.91,2.72-0.45,2.27-1.81l-5.89-18.14
		c0-0.45,0-1.36,0.45-1.81l15.42-11.34C569.88,392.21,569.42,390.39,568.06,390.39z"/>
	<path class="st2" d="M630.19,390.39h-19.05c-0.45,0-1.36-0.45-1.36-0.91l-5.89-18.14c-0.45-1.36-2.72-1.36-3.17,0l-5.89,18.14
		c0,0.45-0.91,0.91-1.36,0.91h-19.05c-1.36,0-2.27,1.81-0.91,2.72l15.42,11.34c0.45,0.45,0.91,0.91,0.45,1.81l-5.89,18.14
		c-0.45,1.36,1.36,2.72,2.27,1.81l15.42-11.34c0.45-0.45,1.36-0.45,1.81,0l15.42,11.34c1.36,0.91,2.72-0.45,2.27-1.81l-5.89-18.14
		c0-0.45,0-1.36,0.45-1.81l15.42-11.34C632,392.21,631.55,390.39,630.19,390.39z"/>
	<path class="st2" d="M691.86,393.12c1.36-0.91,0.45-2.72-0.91-2.72H671.9c-0.45,0-1.36-0.45-1.36-0.91l-5.89-18.14
		c-0.45-1.36-2.72-1.36-3.17,0l-5.89,18.14c0,0.45-0.91,0.91-1.36,0.91h-19.05c-1.36,0-2.27,1.81-0.91,2.72l15.42,11.34
		c0.45,0.45,0.91,0.91,0.45,1.81l-5.89,18.14c-0.45,1.36,1.36,2.72,2.27,1.81l15.42-11.34c0.45-0.45,1.36-0.45,1.81,0l15.42,11.34
		c1.36,0.91,2.72-0.45,2.27-1.81l-5.89-18.14c0-0.45,0-1.36,0.45-1.81L691.86,393.12z"/>
</g>
</svg>
